<svg xmlns="http://www.w3.org/2000/svg" xmlns:xlink="http://www.w3.org/1999/xlink" width="1000" zoomAndPan="magnify" viewBox="0 0 750 749.999995" height="1000" preserveAspectRatio="xMidYMid meet" version="1.0"><defs><g/><clipPath id="9648821e4e"><path d="M 166 39.539062 L 608 39.539062 L 608 409 L 166 409 Z M 166 39.539062 " clip-rule="nonzero"/></clipPath><clipPath id="df00b7130a"><path d="M 164 373 L 606 373 L 606 710.789062 L 164 710.789062 Z M 164 373 " clip-rule="nonzero"/></clipPath></defs><path fill="#5e17eb" d="M 277.492188 330.714844 C 243.5 374.546875 282.410156 421.511719 424.644531 397.808594 C 363.367188 419.277344 279.726562 426.433594 257.8125 409.882812 C 239.921875 396.464844 225.160156 332.503906 277.492188 330.714844 Z M 277.492188 330.714844 " fill-opacity="1" fill-rule="evenodd"/><g clip-path="url(#9648821e4e)"><path fill="#5e17eb" d="M 587.453125 39.539062 C 612.5 151.359375 443.429688 120.050781 310.589844 158.070312 C 197.429688 190.273438 93.664062 284.199219 234.105469 408.09375 C 170.59375 226.054688 518.574219 319.085938 602.660156 208.164062 C 616.972656 188.929688 593.265625 164.777344 571.796875 176.40625 C 564.640625 180.433594 557.039062 183.117188 549.433594 185.351562 C 612.050781 134.808594 619.65625 102.605469 587.453125 39.539062 Z M 587.453125 39.539062 " fill-opacity="1" fill-rule="evenodd"/></g><g clip-path="url(#df00b7130a)"><path fill="#5e17eb" d="M 184.90625 710.449219 C 159.859375 598.632812 328.480469 629.941406 461.320312 591.476562 C 562.40625 562.851562 656.332031 484.578125 574.480469 379.917969 C 565.535156 368.285156 546.304688 374.101562 544.960938 387.96875 C 534.675781 507.390625 244.394531 441.640625 168.804688 541.382812 C 154.492188 560.613281 178.199219 584.765625 200.113281 573.136719 C 207.269531 569.113281 214.425781 566.429688 222.03125 564.191406 C 160.304688 614.734375 153.148438 647.386719 184.90625 710.449219 Z M 184.90625 710.449219 " fill-opacity="1" fill-rule="evenodd"/></g><g fill="#5e17eb" fill-opacity="1"><g transform="translate(238.955235, 234.472296)"><g><path d="M 26.859375 0 L 21.046875 0 L 18.9375 -6.453125 L 8.21875 -6.453125 L 6.109375 0 L 0.421875 0 L 10.09375 -28 L 17.203125 -28 Z M 13.3125 -22.15625 L 9.703125 -11.109375 L 17.40625 -11.109375 L 13.78125 -22.15625 Z M 13.3125 -22.15625 "/></g></g><g transform="translate(266.246539, 234.472296)"><g><path d="M 10.4375 0.40625 C 8.757812 0.40625 7.28125 0 6 -0.8125 C 4.71875 -1.625 3.710938 -2.847656 2.984375 -4.484375 C 2.253906 -6.128906 1.890625 -8.148438 1.890625 -10.546875 C 1.890625 -12.960938 2.265625 -14.988281 3.015625 -16.625 C 3.765625 -18.269531 4.796875 -19.5 6.109375 -20.3125 C 7.429688 -21.125 8.960938 -21.53125 10.703125 -21.53125 C 12.015625 -21.53125 13.148438 -21.300781 14.109375 -20.84375 C 15.078125 -20.394531 15.894531 -19.691406 16.5625 -18.734375 L 16.96875 -18.828125 L 16.96875 -29.609375 L 22.265625 -29.609375 L 22.265625 0 L 16.96875 0 L 16.96875 -2.734375 L 16.5625 -2.8125 C 15.976562 -1.820312 15.175781 -1.035156 14.15625 -0.453125 C 13.132812 0.117188 11.894531 0.40625 10.4375 0.40625 Z M 12.15625 -4.09375 C 13.65625 -4.09375 14.835938 -4.625 15.703125 -5.6875 C 16.566406 -6.757812 17 -8.378906 17 -10.546875 C 17 -12.722656 16.566406 -14.347656 15.703125 -15.421875 C 14.835938 -16.492188 13.65625 -17.03125 12.15625 -17.03125 C 10.601562 -17.03125 9.414062 -16.507812 8.59375 -15.46875 C 7.769531 -14.425781 7.359375 -12.785156 7.359375 -10.546875 C 7.359375 -8.328125 7.769531 -6.695312 8.59375 -5.65625 C 9.414062 -4.613281 10.601562 -4.09375 12.15625 -4.09375 Z M 12.15625 -4.09375 "/></g></g><g transform="translate(291.565208, 234.472296)"><g><path d="M 10.4375 0.40625 C 8.757812 0.40625 7.28125 0 6 -0.8125 C 4.71875 -1.625 3.710938 -2.847656 2.984375 -4.484375 C 2.253906 -6.128906 1.890625 -8.148438 1.890625 -10.546875 C 1.890625 -12.960938 2.265625 -14.988281 3.015625 -16.625 C 3.765625 -18.269531 4.796875 -19.5 6.109375 -20.3125 C 7.429688 -21.125 8.960938 -21.53125 10.703125 -21.53125 C 12.015625 -21.53125 13.148438 -21.300781 14.109375 -20.84375 C 15.078125 -20.394531 15.894531 -19.691406 16.5625 -18.734375 L 16.96875 -18.828125 L 16.96875 -29.609375 L 22.265625 -29.609375 L 22.265625 0 L 16.96875 0 L 16.96875 -2.734375 L 16.5625 -2.8125 C 15.976562 -1.820312 15.175781 -1.035156 14.15625 -0.453125 C 13.132812 0.117188 11.894531 0.40625 10.4375 0.40625 Z M 12.15625 -4.09375 C 13.65625 -4.09375 14.835938 -4.625 15.703125 -5.6875 C 16.566406 -6.757812 17 -8.378906 17 -10.546875 C 17 -12.722656 16.566406 -14.347656 15.703125 -15.421875 C 14.835938 -16.492188 13.65625 -17.03125 12.15625 -17.03125 C 10.601562 -17.03125 9.414062 -16.507812 8.59375 -15.46875 C 7.769531 -14.425781 7.359375 -12.785156 7.359375 -10.546875 C 7.359375 -8.328125 7.769531 -6.695312 8.59375 -5.65625 C 9.414062 -4.613281 10.601562 -4.09375 12.15625 -4.09375 Z M 12.15625 -4.09375 "/></g></g><g transform="translate(316.883877, 234.472296)"><g/></g><g transform="translate(326.134192, 234.472296)"><g><path d="M 8.234375 0.40625 C 6.878906 0.40625 5.703125 0.15625 4.703125 -0.34375 C 3.710938 -0.84375 2.945312 -1.570312 2.40625 -2.53125 C 1.875 -3.5 1.609375 -4.660156 1.609375 -6.015625 C 1.609375 -7.265625 1.875 -8.3125 2.40625 -9.15625 C 2.945312 -10.007812 3.78125 -10.707031 4.90625 -11.25 C 6.03125 -11.789062 7.5 -12.207031 9.3125 -12.5 C 10.570312 -12.707031 11.53125 -12.929688 12.1875 -13.171875 C 12.84375 -13.410156 13.285156 -13.679688 13.515625 -13.984375 C 13.742188 -14.296875 13.859375 -14.691406 13.859375 -15.171875 C 13.859375 -15.847656 13.625 -16.363281 13.15625 -16.71875 C 12.6875 -17.070312 11.898438 -17.25 10.796875 -17.25 C 9.617188 -17.25 8.5 -16.988281 7.4375 -16.46875 C 6.382812 -15.945312 5.46875 -15.257812 4.6875 -14.40625 L 4.3125 -14.40625 L 2.09375 -17.75 C 3.164062 -18.9375 4.472656 -19.863281 6.015625 -20.53125 C 7.554688 -21.195312 9.238281 -21.53125 11.0625 -21.53125 C 13.863281 -21.53125 15.890625 -20.9375 17.140625 -19.75 C 18.390625 -18.5625 19.015625 -16.875 19.015625 -14.6875 L 19.015625 -5.515625 C 19.015625 -4.566406 19.429688 -4.09375 20.265625 -4.09375 C 20.578125 -4.09375 20.890625 -4.148438 21.203125 -4.265625 L 21.46875 -4.1875 L 21.84375 -0.5 C 21.550781 -0.300781 21.144531 -0.140625 20.625 -0.015625 C 20.101562 0.0976562 19.53125 0.15625 18.90625 0.15625 C 17.632812 0.15625 16.644531 -0.0820312 15.9375 -0.5625 C 15.226562 -1.050781 14.722656 -1.816406 14.421875 -2.859375 L 14.015625 -2.890625 C 12.984375 -0.691406 11.054688 0.40625 8.234375 0.40625 Z M 9.921875 -3.5625 C 11.148438 -3.5625 12.128906 -3.972656 12.859375 -4.796875 C 13.585938 -5.617188 13.953125 -6.765625 13.953125 -8.234375 L 13.953125 -10.375 L 13.59375 -10.453125 C 13.28125 -10.203125 12.863281 -9.988281 12.34375 -9.8125 C 11.820312 -9.644531 11.078125 -9.476562 10.109375 -9.3125 C 8.960938 -9.113281 8.132812 -8.78125 7.625 -8.3125 C 7.125 -7.851562 6.875 -7.195312 6.875 -6.34375 C 6.875 -5.4375 7.140625 -4.742188 7.671875 -4.265625 C 8.210938 -3.796875 8.960938 -3.5625 9.921875 -3.5625 Z M 9.921875 -3.5625 "/></g></g><g transform="translate(348.407726, 234.472296)"><g/></g><g transform="translate(357.658042, 234.472296)"><g><path d="M 3.046875 0 L 3.046875 -29.609375 L 8.34375 -29.609375 L 8.34375 -18.359375 L 8.75 -18.28125 C 9.457031 -19.320312 10.320312 -20.125 11.34375 -20.6875 C 12.363281 -21.25 13.59375 -21.53125 15.03125 -21.53125 C 19.6875 -21.53125 22.015625 -18.882812 22.015625 -13.59375 L 22.015625 0 L 16.71875 0 L 16.71875 -12.921875 C 16.71875 -14.367188 16.429688 -15.414062 15.859375 -16.0625 C 15.285156 -16.71875 14.390625 -17.046875 13.171875 -17.046875 C 11.691406 -17.046875 10.515625 -16.550781 9.640625 -15.5625 C 8.773438 -14.570312 8.34375 -13.03125 8.34375 -10.9375 L 8.34375 0 Z M 3.046875 0 "/></g></g><g transform="translate(382.402157, 234.472296)"><g><path d="M 20.875 -9.359375 L 7.296875 -9.359375 C 7.453125 -7.523438 7.972656 -6.1875 8.859375 -5.34375 C 9.753906 -4.507812 10.976562 -4.09375 12.53125 -4.09375 C 13.738281 -4.09375 14.71875 -4.316406 15.46875 -4.765625 C 16.226562 -5.222656 16.835938 -5.914062 17.296875 -6.84375 L 17.6875 -6.84375 L 21.21875 -4.578125 C 20.53125 -3.097656 19.488281 -1.894531 18.09375 -0.96875 C 16.707031 -0.0507812 14.851562 0.40625 12.53125 0.40625 C 10.34375 0.40625 8.453125 -0.0078125 6.859375 -0.84375 C 5.273438 -1.675781 4.050781 -2.910156 3.1875 -4.546875 C 2.320312 -6.191406 1.890625 -8.191406 1.890625 -10.546875 C 1.890625 -12.953125 2.34375 -14.976562 3.25 -16.625 C 4.15625 -18.269531 5.378906 -19.5 6.921875 -20.3125 C 8.472656 -21.125 10.210938 -21.53125 12.140625 -21.53125 C 15.128906 -21.53125 17.414062 -20.738281 19 -19.15625 C 20.59375 -17.570312 21.390625 -15.242188 21.390625 -12.171875 C 21.390625 -11.066406 21.351562 -10.207031 21.28125 -9.59375 Z M 16.3125 -12.796875 C 16.257812 -14.398438 15.882812 -15.566406 15.1875 -16.296875 C 14.5 -17.035156 13.484375 -17.40625 12.140625 -17.40625 C 9.460938 -17.40625 7.882812 -15.867188 7.40625 -12.796875 Z M 16.3125 -12.796875 "/></g></g><g transform="translate(405.365156, 234.472296)"><g><path d="M 8.234375 0.40625 C 6.878906 0.40625 5.703125 0.15625 4.703125 -0.34375 C 3.710938 -0.84375 2.945312 -1.570312 2.40625 -2.53125 C 1.875 -3.5 1.609375 -4.660156 1.609375 -6.015625 C 1.609375 -7.265625 1.875 -8.3125 2.40625 -9.15625 C 2.945312 -10.007812 3.78125 -10.707031 4.90625 -11.25 C 6.03125 -11.789062 7.5 -12.207031 9.3125 -12.5 C 10.570312 -12.707031 11.53125 -12.929688 12.1875 -13.171875 C 12.84375 -13.410156 13.285156 -13.679688 13.515625 -13.984375 C 13.742188 -14.296875 13.859375 -14.691406 13.859375 -15.171875 C 13.859375 -15.847656 13.625 -16.363281 13.15625 -16.71875 C 12.6875 -17.070312 11.898438 -17.25 10.796875 -17.25 C 9.617188 -17.25 8.5 -16.988281 7.4375 -16.46875 C 6.382812 -15.945312 5.46875 -15.257812 4.6875 -14.40625 L 4.3125 -14.40625 L 2.09375 -17.75 C 3.164062 -18.9375 4.472656 -19.863281 6.015625 -20.53125 C 7.554688 -21.195312 9.238281 -21.53125 11.0625 -21.53125 C 13.863281 -21.53125 15.890625 -20.9375 17.140625 -19.75 C 18.390625 -18.5625 19.015625 -16.875 19.015625 -14.6875 L 19.015625 -5.515625 C 19.015625 -4.566406 19.429688 -4.09375 20.265625 -4.09375 C 20.578125 -4.09375 20.890625 -4.148438 21.203125 -4.265625 L 21.46875 -4.1875 L 21.84375 -0.5 C 21.550781 -0.300781 21.144531 -0.140625 20.625 -0.015625 C 20.101562 0.0976562 19.53125 0.15625 18.90625 0.15625 C 17.632812 0.15625 16.644531 -0.0820312 15.9375 -0.5625 C 15.226562 -1.050781 14.722656 -1.816406 14.421875 -2.859375 L 14.015625 -2.890625 C 12.984375 -0.691406 11.054688 0.40625 8.234375 0.40625 Z M 9.921875 -3.5625 C 11.148438 -3.5625 12.128906 -3.972656 12.859375 -4.796875 C 13.585938 -5.617188 13.953125 -6.765625 13.953125 -8.234375 L 13.953125 -10.375 L 13.59375 -10.453125 C 13.28125 -10.203125 12.863281 -9.988281 12.34375 -9.8125 C 11.820312 -9.644531 11.078125 -9.476562 10.109375 -9.3125 C 8.960938 -9.113281 8.132812 -8.78125 7.625 -8.3125 C 7.125 -7.851562 6.875 -7.195312 6.875 -6.34375 C 6.875 -5.4375 7.140625 -4.742188 7.671875 -4.265625 C 8.210938 -3.796875 8.960938 -3.5625 9.921875 -3.5625 Z M 9.921875 -3.5625 "/></g></g><g transform="translate(427.63869, 234.472296)"><g><path d="M 10.4375 0.40625 C 8.757812 0.40625 7.28125 0 6 -0.8125 C 4.71875 -1.625 3.710938 -2.847656 2.984375 -4.484375 C 2.253906 -6.128906 1.890625 -8.148438 1.890625 -10.546875 C 1.890625 -12.960938 2.265625 -14.988281 3.015625 -16.625 C 3.765625 -18.269531 4.796875 -19.5 6.109375 -20.3125 C 7.429688 -21.125 8.960938 -21.53125 10.703125 -21.53125 C 12.015625 -21.53125 13.148438 -21.300781 14.109375 -20.84375 C 15.078125 -20.394531 15.894531 -19.691406 16.5625 -18.734375 L 16.96875 -18.828125 L 16.96875 -29.609375 L 22.265625 -29.609375 L 22.265625 0 L 16.96875 0 L 16.96875 -2.734375 L 16.5625 -2.8125 C 15.976562 -1.820312 15.175781 -1.035156 14.15625 -0.453125 C 13.132812 0.117188 11.894531 0.40625 10.4375 0.40625 Z M 12.15625 -4.09375 C 13.65625 -4.09375 14.835938 -4.625 15.703125 -5.6875 C 16.566406 -6.757812 17 -8.378906 17 -10.546875 C 17 -12.722656 16.566406 -14.347656 15.703125 -15.421875 C 14.835938 -16.492188 13.65625 -17.03125 12.15625 -17.03125 C 10.601562 -17.03125 9.414062 -16.507812 8.59375 -15.46875 C 7.769531 -14.425781 7.359375 -12.785156 7.359375 -10.546875 C 7.359375 -8.328125 7.769531 -6.695312 8.59375 -5.65625 C 9.414062 -4.613281 10.601562 -4.09375 12.15625 -4.09375 Z M 12.15625 -4.09375 "/></g></g><g transform="translate(452.957359, 234.472296)"><g><path d="M 5.6875 -23.65625 C 4.726562 -23.65625 3.945312 -23.941406 3.34375 -24.515625 C 2.75 -25.097656 2.453125 -25.847656 2.453125 -26.765625 C 2.453125 -27.671875 2.75 -28.414062 3.34375 -29 C 3.945312 -29.582031 4.726562 -29.875 5.6875 -29.875 C 6.320312 -29.875 6.890625 -29.738281 7.390625 -29.46875 C 7.890625 -29.195312 8.273438 -28.828125 8.546875 -28.359375 C 8.828125 -27.898438 8.96875 -27.367188 8.96875 -26.765625 C 8.96875 -26.171875 8.828125 -25.632812 8.546875 -25.15625 C 8.273438 -24.6875 7.890625 -24.316406 7.390625 -24.046875 C 6.890625 -23.785156 6.320312 -23.65625 5.6875 -23.65625 Z M 3.046875 0 L 3.046875 -21.125 L 8.34375 -21.125 L 8.34375 0 Z M 3.046875 0 "/></g></g><g transform="translate(464.333523, 234.472296)"><g><path d="M 3.046875 0 L 3.046875 -21.125 L 8.140625 -21.125 L 8.140625 -18.015625 L 8.546875 -17.921875 C 9.859375 -20.328125 11.988281 -21.53125 14.9375 -21.53125 C 17.375 -21.53125 19.160156 -20.863281 20.296875 -19.53125 C 21.441406 -18.207031 22.015625 -16.273438 22.015625 -13.734375 L 22.015625 0 L 16.71875 0 L 16.71875 -13.078125 C 16.71875 -14.484375 16.4375 -15.492188 15.875 -16.109375 C 15.3125 -16.734375 14.410156 -17.046875 13.171875 -17.046875 C 11.648438 -17.046875 10.460938 -16.550781 9.609375 -15.5625 C 8.765625 -14.582031 8.34375 -13.039062 8.34375 -10.9375 L 8.34375 0 Z M 3.046875 0 "/></g></g><g transform="translate(489.077639, 234.472296)"><g><path d="M 10.953125 8.96875 C 7.460938 8.96875 4.890625 8.453125 3.234375 7.421875 C 1.578125 6.398438 0.75 4.976562 0.75 3.15625 C 0.75 2.050781 1.101562 1.144531 1.8125 0.4375 C 2.519531 -0.269531 3.535156 -0.75 4.859375 -1 L 4.859375 -1.390625 C 4.148438 -1.828125 3.640625 -2.3125 3.328125 -2.84375 C 3.015625 -3.375 2.859375 -3.988281 2.859375 -4.6875 C 2.859375 -6.382812 3.960938 -7.53125 6.171875 -8.125 L 6.171875 -8.515625 C 5.035156 -9.171875 4.175781 -9.976562 3.59375 -10.9375 C 3.019531 -11.90625 2.734375 -13.070312 2.734375 -14.4375 C 2.734375 -15.84375 3.054688 -17.078125 3.703125 -18.140625 C 4.347656 -19.210938 5.289062 -20.046875 6.53125 -20.640625 C 7.78125 -21.234375 9.273438 -21.53125 11.015625 -21.53125 C 12.773438 -21.53125 14.175781 -21.222656 15.21875 -20.609375 C 15.875 -21.546875 16.253906 -22.632812 16.359375 -23.875 L 16.75 -24.125 L 20.5625 -23.1875 C 20.445312 -22.175781 20.15625 -21.328125 19.6875 -20.640625 C 19.21875 -19.960938 18.484375 -19.359375 17.484375 -18.828125 L 17.484375 -18.40625 C 18.671875 -17.351562 19.265625 -15.890625 19.265625 -14.015625 C 19.265625 -12.710938 18.9375 -11.546875 18.28125 -10.515625 C 17.632812 -9.484375 16.6875 -8.664062 15.4375 -8.0625 C 14.195312 -7.457031 12.722656 -7.15625 11.015625 -7.15625 L 10.203125 -7.1875 C 9.691406 -7.207031 9.335938 -7.21875 9.140625 -7.21875 C 8.648438 -7.21875 8.265625 -7.085938 7.984375 -6.828125 C 7.710938 -6.566406 7.578125 -6.234375 7.578125 -5.828125 C 7.578125 -5.378906 7.753906 -5.03125 8.109375 -4.78125 C 8.472656 -4.53125 9 -4.390625 9.6875 -4.359375 L 14.421875 -4.1875 C 19.085938 -4.050781 21.421875 -2.039062 21.421875 1.84375 C 21.421875 3.207031 21.070312 4.421875 20.375 5.484375 C 19.6875 6.546875 18.5625 7.390625 17 8.015625 C 15.445312 8.648438 13.429688 8.96875 10.953125 8.96875 Z M 11.015625 -10.875 C 12.035156 -10.875 12.832031 -11.171875 13.40625 -11.765625 C 13.976562 -12.367188 14.265625 -13.226562 14.265625 -14.34375 C 14.265625 -15.457031 13.976562 -16.3125 13.40625 -16.90625 C 12.832031 -17.5 12.035156 -17.796875 11.015625 -17.796875 C 9.972656 -17.796875 9.171875 -17.5 8.609375 -16.90625 C 8.054688 -16.3125 7.78125 -15.457031 7.78125 -14.34375 C 7.78125 -13.21875 8.054688 -12.359375 8.609375 -11.765625 C 9.171875 -11.171875 9.972656 -10.875 11.015625 -10.875 Z M 10.953125 5.109375 C 12.765625 5.109375 14.082031 4.851562 14.90625 4.34375 C 15.726562 3.832031 16.140625 3.171875 16.140625 2.359375 C 16.140625 1.691406 15.925781 1.203125 15.5 0.890625 C 15.082031 0.578125 14.414062 0.410156 13.5 0.390625 L 9.328125 0.1875 C 9.179688 0.1875 9.046875 0.179688 8.921875 0.171875 C 8.804688 0.160156 8.691406 0.15625 8.578125 0.15625 C 7.679688 0.15625 7 0.34375 6.53125 0.71875 C 6.070312 1.101562 5.84375 1.632812 5.84375 2.3125 C 5.84375 3.207031 6.269531 3.894531 7.125 4.375 C 7.976562 4.863281 9.253906 5.109375 10.953125 5.109375 Z M 10.953125 5.109375 "/></g></g></g></svg>